<svg width="107" height="38" viewBox="0 0 107 38" fill="none" xmlns="http://www.w3.org/2000/svg">
<g id="Frame 14">
<g id="Group 8908">
<g id="g10">
<g id="g12">
<path id="path14" d="M13.0507 0.294189H4.76953C4.20275 0.294189 3.72085 0.836859 3.63243 1.57429L0.28311 29.5572C0.216495 30.1091 0.541084 30.6071 0.96604 30.6071H4.91963C5.48631 30.6071 5.9682 30.0646 6.05663 29.3258L6.95993 21.7785C7.04717 21.0395 7.53025 20.497 8.09575 20.497H10.7173C16.1724 20.497 19.3207 17.0184 20.143 10.1252C20.5134 7.10938 20.1586 4.73989 19.087 3.08043C17.91 1.25801 15.8224 0.294189 13.0507 0.294189ZM14.0062 10.5146C13.5533 14.4303 11.2828 14.4303 9.08748 14.4303H7.83787L8.71453 7.11747C8.76665 6.67541 9.05719 6.34991 9.39629 6.34991H9.96898C11.4644 6.34991 12.8752 6.34991 13.6041 7.47313C14.0388 8.14341 14.1721 9.13905 14.0062 10.5146Z" fill="#283B82"/>
<path id="path16" d="M37.8048 10.3884H33.8393C33.5015 10.3884 33.2097 10.7139 33.1574 11.156L32.9821 12.6176L32.7047 12.0877C31.8462 10.4458 29.9317 9.89697 28.0209 9.89697C23.6388 9.89697 19.8959 14.2706 19.167 20.4059C18.788 23.4664 19.3268 26.3929 20.6442 28.4336C21.8527 30.31 23.5818 31.0919 25.6392 31.0919C29.1702 31.0919 31.1282 28.1003 31.1282 28.1003L30.9513 29.5523C30.8846 30.1076 31.2093 30.6054 31.632 30.6054H35.2038C35.7718 30.6054 36.2513 30.0628 36.341 29.3242L38.4842 11.4383C38.5521 10.8878 38.2287 10.3884 37.8048 10.3884ZM32.2772 20.5592C31.8947 23.5445 30.0964 25.5489 27.8031 25.5489C26.6516 25.5489 25.7312 25.0621 25.1402 24.1398C24.5542 23.2238 24.3314 21.9202 24.5179 20.4681C24.875 17.5082 26.7036 15.4387 28.9618 15.4387C30.088 15.4387 31.0034 15.9317 31.6064 16.8619C32.2108 17.8017 32.4503 19.1134 32.2772 20.5592Z" fill="#283B82"/>
<path id="path18" d="M58.9251 10.3884H54.9401C54.5599 10.3884 54.2027 10.6374 53.9872 11.0539L48.4909 21.7225L46.1612 11.4703C46.0147 10.8288 45.5655 10.3884 45.0569 10.3884H41.1409C40.6649 10.3884 40.3345 11.0011 40.4858 11.5915L44.8753 28.5661L40.7486 36.2429C40.4239 36.8475 40.7508 37.6792 41.3117 37.6792H45.2919C45.6696 37.6792 46.0233 37.4365 46.2375 37.028L59.4918 11.8166C59.8091 11.2133 59.4834 10.3884 58.9251 10.3884Z" fill="#283B82"/>
<path id="path20" d="M72.1191 0.294189H63.8366C63.2712 0.294189 62.7892 0.836859 62.7007 1.57429L59.3514 29.5572C59.285 30.1091 59.6094 30.6071 60.0321 30.6071H64.2823C64.6769 30.6071 65.015 30.2275 65.0766 29.7104L66.0271 21.7785C66.1142 21.0395 66.5975 20.497 67.1629 20.497H69.7834C75.2395 20.497 78.3867 17.0184 79.21 10.1252C79.5819 7.10938 79.2247 4.73989 78.153 3.08043C76.9772 1.25801 74.8908 0.294189 72.1191 0.294189ZM73.0746 10.5146C72.6228 14.4303 70.3526 14.4303 68.1558 14.4303H66.9075L67.7855 7.11747C67.8375 6.67541 68.1255 6.34991 68.4658 6.34991H69.0386C70.533 6.34991 71.9447 6.34991 72.6736 7.47313C73.1084 8.14341 73.2403 9.13905 73.0746 10.5146Z" fill="#469BDB"/>
<path id="path22" d="M96.8721 10.3884H92.9089C92.5686 10.3884 92.279 10.7139 92.2283 11.156L92.0527 12.6176L91.7743 12.0877C90.9158 10.4458 89.0025 9.89697 87.0918 9.89697C82.7094 9.89697 78.968 14.2706 78.2389 20.4059C77.8612 23.4664 78.3975 26.3929 79.7151 28.4336C80.926 30.31 82.6526 31.0919 84.7098 31.0919C88.2408 31.0919 90.1988 28.1003 90.1988 28.1003L90.0219 29.5523C89.9555 30.1076 90.2799 30.6054 90.7051 30.6054H94.2759C94.8414 30.6054 95.3234 30.0628 95.4118 29.3242L97.5563 11.4383C97.6215 10.8878 97.2971 10.3884 96.8721 10.3884ZM91.3443 20.5592C90.964 23.5445 89.1634 25.5489 86.8702 25.5489C85.7209 25.5489 84.7983 25.0621 84.2073 24.1398C83.6214 23.2238 83.4009 21.9202 83.5851 20.4681C83.9446 17.5082 85.7707 15.4387 88.0291 15.4387C89.1551 15.4387 90.0704 15.9317 90.6735 16.8619C91.2801 17.8017 91.5199 19.1134 91.3443 20.5592Z" fill="#469BDB"/>
<path id="path24" d="M101.547 1.0619L98.1483 29.5572C98.0819 30.1091 98.4063 30.6071 98.8289 30.6071H102.246C102.814 30.6071 103.296 30.0646 103.383 29.3258L106.735 1.34455C106.801 0.792233 106.477 0.292847 106.054 0.292847H102.228C101.89 0.29418 101.599 0.620111 101.547 1.0619Z" fill="#469BDB"/>
</g>
</g>
</g>
</g>
</svg>
