<svg width="51" height="51" viewBox="0 0 51 51" fill="none" xmlns="http://www.w3.org/2000/svg">
<g id="free-delivery 1" clip-path="url(#clip0_950_200)">
<g id="Group">
<path id="Vector" d="M40.9479 20.8842H36.1367V17.642C36.1367 16.833 35.4809 16.1771 34.6719 16.1771H1.72266C0.913672 16.1771 0.257812 16.833 0.257812 17.642V44.3151C0.257812 45.1241 0.913672 45.78 1.72266 45.78H6.71094C8.30508 52.0183 17.1088 52.0141 18.7005 45.78H31.815C33.4092 52.0183 42.2129 52.0141 43.8046 45.78H48.793C49.602 45.78 50.2578 45.1241 50.2578 44.3151V30.194C50.2578 25.0605 46.0813 20.8842 40.9479 20.8842ZM12.7058 47.5573C10.918 47.5573 9.46357 46.1028 9.46357 44.3151C9.6416 40.0139 15.7706 40.0152 15.948 44.3151C15.948 46.1028 14.4935 47.5573 12.7058 47.5573ZM33.207 40.2092C32.5444 40.9511 32.0587 41.8535 31.815 42.8502H18.7005C17.1063 36.6119 8.30264 36.6161 6.71094 42.8502H3.1875V19.1067H33.207V40.2092ZM37.8099 47.5573C36.0221 47.5573 34.5677 46.1028 34.5677 44.3151C34.7457 40.0139 40.8747 40.0152 41.0521 44.3151C41.0521 46.1028 39.5977 47.5573 37.8099 47.5573ZM47.3281 42.8503H43.8063C43.1469 40.1518 40.7086 38.1432 37.81 38.1432H36.1367V23.8138H39.4831V33.3321C39.4831 34.1411 40.139 34.7969 40.9479 34.7969H47.3281V42.8503ZM47.3281 31.8672H42.4128V23.9835C45.2271 24.6472 47.3281 27.18 47.3281 30.194V31.8672Z" fill="#244D4D"/>
<path id="Vector_2" d="M36.2406 12.8307H40.1631C42.1067 12.7533 42.1052 9.97769 40.1631 9.90103H37.9698L38.266 8.12369H40.1631C42.1067 8.04625 42.1052 5.27066 40.1631 5.194H38.7542L39.0504 3.41666H41.7321C43.6756 3.33922 43.6742 0.563629 41.7321 0.486969H37.8095C37.0934 0.486969 36.4823 1.00464 36.3646 1.71099L34.7957 11.1251C34.6468 12.0181 35.3367 12.8307 36.2406 12.8307Z" fill="#222222"/>
<path id="Vector_3" d="M26.8269 12.8307H30.7495C32.693 12.7533 32.6916 9.97769 30.7495 9.90103H28.5561L28.8523 8.12369H30.7495C32.693 8.04625 32.6916 5.27066 30.7495 5.194H29.3407L29.637 3.41666H32.3185C34.2621 3.33922 34.2606 0.563629 32.3185 0.486969H28.3961C27.6799 0.486969 27.0688 1.00464 26.9511 1.71099L25.3821 11.1251C25.2333 12.0181 25.9231 12.8307 26.8269 12.8307Z" fill="#244D4D"/>
<path id="Vector_4" d="M15.6028 12.8108C16.7401 13.0003 17.2205 12.0149 17.2885 11.6067L17.5288 10.1655L20.4126 12.5037C21.0792 13.044 21.9953 12.8778 22.4731 12.2883C22.9827 11.6599 22.8862 10.7375 22.2578 10.228L20.6297 8.90816H21.9886C22.7046 8.90816 23.3158 8.39048 23.4335 7.68423L24.3491 2.19273C24.4979 1.29957 23.8081 0.486969 22.9041 0.486969H17.4126C16.6965 0.486969 16.0854 1.00464 15.9677 1.71099L15.0586 7.16509C15.0582 7.16705 15.0581 7.1691 15.0577 7.17105C15.0569 7.17496 15.0564 7.17886 15.0557 7.18277C15.0525 7.20064 15.0493 7.21861 15.0467 7.23668L14.3986 11.1251C14.2656 11.923 14.8047 12.6778 15.6028 12.8108ZM18.6536 3.41666H21.1748L20.7478 5.97847H18.2265L18.6536 3.41666Z" fill="#244D4D"/>
<path id="Vector_5" d="M6.97331 12.8108C8.11062 13.0004 8.59099 12.0148 8.65905 11.6067L9.10876 8.90828H11.1366C13.0801 8.83084 13.0787 6.05525 11.1366 5.97859H9.59704L10.024 3.41678H12.7056C14.6492 3.33934 14.6477 0.563751 12.7056 0.487091H8.78308C8.06696 0.487091 7.45583 1.00477 7.33815 1.71111L5.76921 11.1252C5.6361 11.923 6.17526 12.6778 6.97331 12.8108Z" fill="#244D4D"/>
</g>
</g>
<defs>
<clipPath id="clip0_950_200">
<rect width="50" height="50" fill="white" transform="translate(0.257812 0.472046)"/>
</clipPath>
</defs>
</svg>
