<svg width="51" height="51" viewBox="0 0 51 51" fill="none" xmlns="http://www.w3.org/2000/svg">
<g id="shield 3" clip-path="url(#clip0_950_190)">
<g id="surface1">
<path id="Vector" d="M46.4968 14.0383L46.4952 13.9993C46.4735 13.5191 46.459 13.011 46.4502 12.4456C46.4094 9.68874 44.2179 7.40833 41.4606 7.25421C35.7119 6.9334 31.2647 5.05886 27.4649 1.35518L27.4325 1.32428C26.1931 0.187886 24.3235 0.187886 23.0837 1.32428L23.0513 1.35518C19.2515 5.05886 14.8043 6.9334 9.05562 7.25459C6.29874 7.40833 4.10682 9.68874 4.06601 12.446C4.05761 13.0075 4.04274 13.5156 4.02099 13.9993L4.0187 14.0897C3.90693 19.9518 3.76808 27.2474 6.20872 33.8693C7.55072 37.5108 9.58319 40.6762 12.2493 43.2782C15.2858 46.2415 19.263 48.594 24.0702 50.2701C24.2266 50.3247 24.3891 50.3689 24.5547 50.4021C24.7881 50.4487 25.0231 50.4719 25.2581 50.4719C25.4931 50.4719 25.7285 50.4487 25.9615 50.4021C26.1271 50.3689 26.2908 50.3243 26.4479 50.2694C31.2495 48.5902 35.2225 46.2365 38.2563 43.2736C40.9212 40.6709 42.9537 37.5047 44.2968 33.8624C46.7466 27.2207 46.6082 19.9113 46.4968 14.0383ZM41.5442 32.8473C38.97 39.8267 33.7153 44.6198 25.4797 47.4999C25.4504 47.5098 25.4191 47.5186 25.3867 47.5251C25.3016 47.5419 25.215 47.5419 25.1288 47.5247C25.0968 47.5182 25.0655 47.5098 25.0365 47.4999C16.7922 44.6252 11.534 39.8347 8.96178 32.855C6.71225 26.7511 6.83967 20.054 6.9522 14.1458L6.95296 14.113C6.97585 13.6053 6.99111 13.0735 6.9995 12.4891C7.01781 11.265 7.99285 10.2522 9.21927 10.1839C12.4724 10.0023 15.3304 9.37365 17.9564 8.26205C20.579 7.15198 22.9083 5.58719 25.0765 3.47843C25.1868 3.38536 25.3298 3.38498 25.4397 3.47843C27.6083 5.58719 29.9376 7.15198 32.5598 8.26205C35.1858 9.37365 38.0438 10.0023 41.2973 10.1839C42.5238 10.2522 43.4988 11.265 43.5167 12.4895C43.5255 13.077 43.5408 13.6087 43.5637 14.113C43.6758 20.0281 43.8002 26.7305 41.5442 32.8473Z" fill="#244D4D"/>
<path id="Vector_2" d="M25.2571 13.0121C18.3861 13.0121 12.7964 18.6022 12.7964 25.4729C12.7964 32.3439 18.3861 37.9339 25.2571 37.9339C32.1277 37.9339 37.7178 32.3439 37.7178 25.4729C37.7178 18.6022 32.1277 13.0121 25.2571 13.0121ZM25.2571 34.9997C20.0039 34.9997 15.7303 30.7261 15.7303 25.4729C15.7303 20.2196 20.0039 15.946 25.2571 15.946C30.5099 15.946 34.7835 20.2196 34.7835 25.4729C34.7835 30.7261 30.5099 34.9997 25.2571 34.9997Z" fill="#244D4D"/>
<path id="Vector_3" d="M28.8384 21.6044L23.0507 27.392L21.4798 25.8212C20.9069 25.2482 19.978 25.2482 19.405 25.8212C18.8324 26.3941 18.8324 27.323 19.405 27.8956L22.0135 30.5041C22.3 30.7906 22.6754 30.9336 23.0507 30.9336C23.4261 30.9336 23.8015 30.7906 24.0879 30.5041L30.9132 23.6788C31.4858 23.1059 31.4858 22.177 30.9132 21.6044C30.3402 21.031 29.4114 21.031 28.8384 21.6044Z" fill="#244D4D"/>
</g>
</g>
<defs>
<clipPath id="clip0_950_190">
<rect width="50" height="50" fill="white" transform="translate(0.257812 0.472046)"/>
</clipPath>
</defs>
</svg>
