<svg width="91" height="33" viewBox="0 0 91 33" fill="none" xmlns="http://www.w3.org/2000/svg">
<g id="visa 1" clip-path="url(#clip0_950_99)">
<path id="Vector" d="M33.5967 30.7461L38.1478 5.14606H45.2589L40.85 30.7461H33.5967Z" fill="#3C58BF"/>
<path id="Vector_2" d="M33.5967 30.7461L39.4278 5.14606H45.2589L40.85 30.7461H33.5967Z" fill="#293688"/>
<path id="Vector_3" d="M66.592 5.43056C65.1698 4.86167 62.8943 4.29279 60.0498 4.29279C52.9387 4.29279 47.8187 7.84834 47.8187 12.9683C47.8187 16.8083 51.3743 18.7994 54.2187 20.0794C57.0631 21.3594 57.9165 22.2128 57.9165 23.3506C57.9165 25.0572 55.6409 25.9106 53.6498 25.9106C50.8054 25.9106 49.2409 25.4839 46.8231 24.4883L45.8276 24.0617L44.832 29.8928C46.5387 30.6039 49.6676 31.315 52.9387 31.315C60.4765 31.315 65.4543 27.7595 65.4543 22.355C65.4543 19.3683 63.6054 17.0928 59.3387 15.2439C56.7787 13.9639 55.2143 13.2528 55.2143 11.9728C55.2143 10.835 56.4943 9.69723 59.3387 9.69723C61.7565 9.69723 63.4631 10.1239 64.7431 10.6928L65.4543 10.9772L66.592 5.43056Z" fill="#3C58BF"/>
<path id="Vector_4" d="M66.592 5.43056C65.1698 4.86167 62.8943 4.29279 60.0498 4.29279C52.9387 4.29279 49.0987 7.84834 49.0987 12.9683C49.0987 16.8083 51.3743 18.7994 54.2187 20.0794C57.0631 21.3594 57.9165 22.2128 57.9165 23.3506C57.9165 25.0572 55.6409 25.9106 53.6498 25.9106C50.8054 25.9106 49.2409 25.4839 46.8231 24.4883L45.8276 24.0617L44.832 29.8928C46.5387 30.6039 49.6676 31.315 52.9387 31.315C60.4765 31.315 65.4543 27.7595 65.4543 22.355C65.4543 19.3683 63.6054 17.0928 59.3387 15.2439C56.7787 13.9639 55.2143 13.2528 55.2143 11.9728C55.2143 10.835 56.4943 9.69723 59.3387 9.69723C61.7565 9.69723 63.4631 10.1239 64.7431 10.6928L65.4543 10.9772L66.592 5.43056Z" fill="#293688"/>
<path id="Vector_5" d="M78.8234 5.14606C77.1168 5.14606 75.8368 5.28828 75.1256 6.99495L64.459 30.7461H72.139L73.5612 26.4794H82.6634L83.5168 30.7461H90.3434L84.3701 5.14606H78.8234ZM75.5523 22.2127C75.979 20.9327 78.3968 14.6749 78.3968 14.6749C78.3968 14.6749 78.9656 13.1105 79.3923 12.1149L79.819 14.5327C79.819 14.5327 81.2412 20.9327 81.5256 22.355H75.5523V22.2127Z" fill="#3C58BF"/>
<path id="Vector_6" d="M80.5301 5.14606C78.8234 5.14606 77.5434 5.28828 76.8323 6.99495L64.459 30.7461H72.139L73.5612 26.4794H82.6634L83.5168 30.7461H90.3434L84.3701 5.14606H80.5301ZM75.5523 22.2127C76.1212 20.7905 78.3968 14.6749 78.3968 14.6749C78.3968 14.6749 78.9656 13.1105 79.3923 12.1149L79.819 14.5327C79.819 14.5327 81.2412 20.9327 81.5256 22.355H75.5523V22.2127Z" fill="#293688"/>
<path id="Vector_7" d="M20.5119 23.0661L19.8008 19.3683C18.5208 15.1017 14.3963 10.4083 9.84521 8.13277L16.2452 30.8883H23.9252L35.4452 5.28833H27.7652L20.5119 23.0661Z" fill="#3C58BF"/>
<path id="Vector_8" d="M20.5119 23.0661L19.8008 19.3683C18.5208 15.1017 14.3963 10.4083 9.84521 8.13277L16.2452 30.8883H23.9252L35.4452 5.28833H29.1874L20.5119 23.0661Z" fill="#293688"/>
<path id="Vector_9" d="M0.743164 5.14606L2.02316 5.4305C11.1254 7.56384 17.3832 12.9683 19.8009 19.3683L17.2409 7.27939C16.8143 5.57272 15.5343 5.14606 13.9698 5.14606H0.743164Z" fill="#FFBC00"/>
<path id="Vector_10" d="M0.743164 5.14606C9.84539 7.27939 17.3832 12.8261 19.8009 19.2261L17.3832 9.12828C16.9565 7.42161 15.5343 6.42606 13.9698 6.42606L0.743164 5.14606Z" fill="#F7981D"/>
<path id="Vector_11" d="M0.743164 5.14606C9.84539 7.27939 17.3832 12.8261 19.8009 19.2261L18.0943 13.6794C17.6676 11.9727 17.0987 10.2661 15.1076 9.55495L0.743164 5.14606Z" fill="#ED7C00"/>
<g id="Group">
<path id="Vector_12" d="M27.6229 22.2127L22.7873 17.3771L20.5117 22.7816L19.9429 19.226C18.6629 14.9594 14.5384 10.266 9.9873 7.99048L16.3873 30.746H24.0673L27.6229 22.2127Z" fill="#051244"/>
<path id="Vector_13" d="M40.849 30.7462L34.7335 24.4884L33.5957 30.7462H40.849Z" fill="#051244"/>
<path id="Vector_14" d="M57.2054 21.9283C57.7743 22.4972 58.0587 22.9238 57.9165 23.4927C57.9165 25.1994 55.6409 26.0527 53.6498 26.0527C50.8054 26.0527 49.2409 25.6261 46.8231 24.6305L45.8276 24.2038L44.832 30.035C46.5387 30.7461 49.6676 31.4572 52.9387 31.4572C57.4898 31.4572 61.1876 30.1772 63.3209 27.9016L57.2054 21.9283Z" fill="#051244"/>
<path id="Vector_15" d="M65.4541 30.7459H72.1385L73.5608 26.4793H82.663L83.5163 30.7459H90.343L87.9252 20.3637L79.3919 12.1148L79.8185 14.3904C79.8185 14.3904 81.2408 20.7904 81.5252 22.2126H75.5519C76.1208 20.7904 78.3963 14.6748 78.3963 14.6748C78.3963 14.6748 78.9652 13.1104 79.3919 12.1148" fill="#051244"/>
</g>
</g>
<defs>
<clipPath id="clip0_950_99">
<rect width="89.6" height="32" fill="white" transform="translate(0.743164 0.986084)"/>
</clipPath>
</defs>
</svg>
