<svg width="67" height="42" viewBox="0 0 67 42" fill="none" xmlns="http://www.w3.org/2000/svg">
<g id="XMLID_328_">
<path id="rect19" d="M42.5408 4.42676H24.4312V36.9667H42.5408V4.42676Z" fill="#FF5F00"/>
<path id="XMLID_330_" d="M25.5826 20.6968C25.5826 14.0853 28.6871 8.22124 33.4589 4.42682C29.9519 1.66725 25.5251 0 20.6958 0C9.2551 0 -0.000976562 9.25607 -0.000976562 20.6968C-0.000976562 32.1375 9.2551 41.3936 20.6958 41.3936C25.5251 41.3936 29.9519 39.7264 33.4589 36.9668C28.6871 33.2299 25.5826 27.3083 25.5826 20.6968Z" fill="#EB001B"/>
<path id="path22" d="M66.9769 20.6968C66.9769 32.1375 57.7209 41.3936 46.2801 41.3936C41.4509 41.3936 37.024 39.7264 33.5171 36.9668C38.3463 33.1724 41.3934 27.3083 41.3934 20.6968C41.3934 14.0853 38.2889 8.22124 33.5171 4.42682C37.024 1.66725 41.4509 0 46.2801 0C57.7209 0 66.9769 9.31356 66.9769 20.6968Z" fill="#F79E1B"/>
</g>
</svg>
