<svg width="50" height="50" viewBox="0 0 50 50" fill="none" xmlns="http://www.w3.org/2000/svg">
<g id="uim:clock-three">
<path id="Vector" d="M25 12.5C25.5525 12.5 26.0824 12.7195 26.4731 13.1102C26.8638 13.5009 27.0833 14.0308 27.0833 14.5833V22.9167H31.25C31.8025 22.9167 32.3324 23.1362 32.7231 23.5269C33.1138 23.9176 33.3333 24.4475 33.3333 25C33.3333 25.5525 33.1138 26.0824 32.7231 26.4731C32.3324 26.8638 31.8025 27.0833 31.25 27.0833H25C24.4475 27.0833 23.9176 26.8638 23.5269 26.4731C23.1362 26.0824 22.9167 25.5525 22.9167 25V14.5833C22.9167 14.0308 23.1362 13.5009 23.5269 13.1102C23.9176 12.7195 24.4475 12.5 25 12.5Z" fill="#2D76F9"/>
<path id="Vector_2" opacity="0.5" d="M4.16667 24.9998C4.16667 29.1203 5.38853 33.1482 7.67772 36.5742C9.96692 40.0002 13.2206 42.6705 17.0274 44.2473C20.8342 45.8242 25.0231 46.2367 29.0644 45.4329C33.1057 44.629 36.8178 42.6448 39.7314 39.7312C42.645 36.8176 44.6292 33.1055 45.433 29.0642C46.2369 25.0229 45.8243 20.8341 44.2475 17.0273C42.6707 13.2205 40.0004 9.96675 36.5744 7.67755C33.1484 5.38836 29.1204 4.1665 25 4.1665C22.2641 4.1665 19.555 4.70537 17.0274 5.75235C14.4998 6.79932 12.2032 8.33389 10.2686 10.2684C6.36161 14.1755 4.16667 19.4745 4.16667 24.9998ZM22.9167 14.5832C22.9167 14.0306 23.1362 13.5007 23.5269 13.11C23.9176 12.7193 24.4475 12.4998 25 12.4998C25.5525 12.4998 26.0824 12.7193 26.4731 13.11C26.8638 13.5007 27.0833 14.0306 27.0833 14.5832V22.9165H31.25C31.8025 22.9165 32.3324 23.136 32.7231 23.5267C33.1138 23.9174 33.3333 24.4473 33.3333 24.9998C33.3333 25.5524 33.1138 26.0823 32.7231 26.473C32.3324 26.8637 31.8025 27.0832 31.25 27.0832H25C24.4475 27.0832 23.9176 26.8637 23.5269 26.473C23.1362 26.0823 22.9167 25.5524 22.9167 24.9998V14.5832Z" fill="#2D76F9"/>
</g>
</svg>
